<svg xmlns="http://www.w3.org/2000/svg" xmlns:xlink="http://www.w3.org/1999/xlink" viewBox="0,0,256,256" width="50px" height="50px" fill-rule="nonzero"><g fill="#dc06ff" fill-rule="nonzero" stroke="none" stroke-width="1" stroke-linecap="butt" stroke-linejoin="miter" stroke-miterlimit="10" stroke-dasharray="" stroke-dashoffset="0" font-family="none" font-weight="none" font-size="none" text-anchor="none" style="mix-blend-mode: normal"><g transform="scale(5.12,5.12)"><path d="M18.98242,2.99023c-0.495,0 -0.91723,0.36156 -0.99023,0.85156l-0.5957,3.98047l-0.02148,0.00977c-7.719,3.122 -12.70703,10.52166 -12.70703,18.84766c0,1.559 0.18202,3.1252 0.54102,4.6582l0.00586,0.01953l-2.90625,2.78711c-0.357,0.343 -0.411,0.89583 -0.125,1.29883l6.95117,9.82617c0.286,0.404 0.82258,0.54241 1.26758,0.31641l3.5957,-1.81445l0.01953,0.01172c3.28,2.111 7.07937,3.22852 10.98438,3.22852c3.907,0 7.70437,-1.11652 10.98438,-3.22852l0.01953,-0.00977l3.5957,1.8125c0.443,0.224 0.97962,0.08759 1.26563,-0.31641l6.95117,-9.82617c0.285,-0.405 0.23105,-0.95683 -0.12695,-1.29883l-2.9043,-2.78516l0.00586,-0.02148c0.359,-1.533 0.53906,-3.1012 0.53906,-4.6582c0,-8.326 -4.98798,-15.72466 -12.70898,-18.84766l-0.61523,-3.99023c-0.073,-0.489 -0.49328,-0.85156 -0.98828,-0.85156zM23.99805,9h2v5.05078c6.425,0.513 11.5,5.89422 11.5,12.44922c0,2.331 -0.65158,4.50891 -1.76758,6.37891l4.375,3.11719l-1.16016,1.62891l-4.36523,-3.11133c-2.295,2.739 -5.73608,4.48633 -9.58008,4.48633c-3.857,0 -7.30852,-1.75772 -9.60352,-4.51172l-4.34375,3.0957l-1.16016,-1.62891l4.35937,-3.10547c-1.105,-1.864 -1.75391,-4.03061 -1.75391,-6.34961c0,-6.555 5.075,-11.93722 11.5,-12.44922zM24,16.05078c-5.322,0.505 -9.5,4.99722 -9.5,10.44922c0,1.887 0.50781,3.6555 1.38281,5.1875l2.16406,-1.54297l-1.1543,-1.61914l6.60742,-1.02539l-3.12695,5.91211l-1.16797,-1.63867l-2.17187,1.54883c1.928,2.247 4.7808,3.67773 7.9668,3.67773c3.174,0 6.01636,-1.42034 7.94336,-3.65234l-2.14844,-1.5332l-1.16797,1.63867l-3.12695,-5.91211l6.60742,1.02539l-1.1543,1.61914l2.14648,1.53125c0.885,-1.539 1.39844,-3.31584 1.39844,-5.21484c0.001,-5.454 -4.17605,-9.94617 -9.49805,-10.45117v2.96094h1.98828l-3,5.97656l-3,-5.97656h2.01172z"></path></g></g></svg>